<svg xmlns="http://www.w3.org/2000/svg" viewBox="0 0 32 32" width="32" height="32">
  <defs>
    <radialGradient id="bg" cx="50%" cy="50%" r="50%">
      <stop offset="0%" style="stop-color:#1a0a00;stop-opacity:1" />
      <stop offset="100%" style="stop-color:#000000;stop-opacity:1" />
    </radialGradient>
    <radialGradient id="disco" cx="50%" cy="50%" r="40%">
      <stop offset="0%" style="stop-color:#ffcc00;stop-opacity:1" />
      <stop offset="70%" style="stop-color:#ff8c00;stop-opacity:0.8" />
      <stop offset="100%" style="stop-color:#ff4500;stop-opacity:0.6" />
    </radialGradient>
  </defs>
  
  <!-- Background -->
  <circle cx="16" cy="16" r="16" fill="url(#bg)"/>
  
  <!-- Disco ball -->
  <circle cx="16" cy="12" r="7" fill="url(#disco)" stroke="#ffd700" stroke-width="0.5"/>
  
  <!-- Disco ball grid pattern -->
  <g stroke="#ffffff" stroke-width="0.3" opacity="0.6">
    <line x1="10" y1="12" x2="22" y2="12"/>
    <line x1="11" y1="8" x2="21" y2="16"/>
    <line x1="11" y1="16" x2="21" y2="8"/>
    <line x1="16" y1="5" x2="16" y2="19"/>
  </g>
  
  <!-- Light rays -->
  <g stroke="#ffcc00" stroke-width="1" opacity="0.8">
    <line x1="16" y1="2" x2="16" y2="6" stroke-linecap="round"/>
    <line x1="26" y1="12" x2="22" y2="12" stroke-linecap="round"/>
    <line x1="10" y1="12" x2="6" y2="12" stroke-linecap="round"/>
    <line x1="23" y1="6" x2="21" y2="8" stroke-linecap="round"/>
    <line x1="9" y1="6" x2="11" y2="8" stroke-linecap="round"/>
  </g>
  
  <!-- Music notes -->
  <g fill="#ffd700" opacity="0.9">
    <circle cx="8" cy="22" r="1.5"/>
    <rect x="8.5" y="18" width="0.8" height="4"/>
    <path d="M9.3,18 Q11,17 11,19 Q11,20 10,20 Q9,20 9,19 Q9,18.5 9.3,18"/>
    
    <circle cx="24" cy="24" r="1.2"/>
    <rect x="24.4" y="21" width="0.6" height="3"/>
    <path d="M25,21 Q26.5,20.2 26.5,22 Q26.5,22.8 25.8,22.8 Q25,22.8 25,22 Q25,21.5 25,21"/>
  </g>
  
  <!-- Sparkles -->
  <g fill="#ffffff" opacity="0.8">
    <circle cx="4" cy="8" r="0.5"/>
    <circle cx="28" cy="26" r="0.5"/>
    <circle cx="6" cy="28" r="0.3"/>
    <circle cx="26" cy="4" r="0.3"/>
  </g>
</svg>
